<svg enable-background="new 0 0 64 64" viewBox="0 0 64 64" xmlns="http://www.w3.org/2000/svg"><circle cx="32" cy="32" fill="#77b3d4" r="32"/><path d="m12 25v25c0 2.2 1.8 4 4 4h32c2.2 0 4-1.8 4-4v-25z" fill="#231f20" opacity=".2"/><path d="m12 23v25c0 2.2 1.8 4 4 4h32c2.2 0 4-1.8 4-4v-25z" fill="#fff"/><path d="m48 14h-32c-2.2 0-4 1.8-4 4v7h40v-7c0-2.2-1.8-4-4-4z" fill="#231f20" opacity=".2"/><path d="m48 12h-32c-2.2 0-4 1.8-4 4v7h40v-7c0-2.2-1.8-4-4-4z" fill="#c75c5c"/><path d="m32 48c-1.1 0-2-.9-2-2 0-5.5 1.8-9.5 3.5-12h-6.5c-1.1 0-2-.9-2-2s.9-2 2-2h11c.9 0 1.6.6 1.9 1.4s0 1.7-.7 2.2c-.2.2-5.2 3.9-5.2 12.4 0 1.1-.9 2-2 2z" fill="#4f5d73"/><path d="m20 21c-1.1 0-2-.9-2-2v-7c0-1.1.9-2 2-2 1.1 0 2 .9 2 2v7c0 1.1-.9 2-2 2z" fill="#231f20" opacity=".2"/><path d="m45 21c-1.1 0-2-.9-2-2v-7c0-1.1.9-2 2-2 1.1 0 2 .9 2 2v7c0 1.1-.9 2-2 2z" fill="#231f20" opacity=".2"/><g fill="#e0e0d1"><path d="m20 19c-1.1 0-2-.9-2-2v-7c0-1.1.9-2 2-2 1.1 0 2 .9 2 2v7c0 1.1-.9 2-2 2z"/><path d="m45 19c-1.1 0-2-.9-2-2v-7c0-1.1.9-2 2-2 1.1 0 2 .9 2 2v7c0 1.1-.9 2-2 2z"/></g></svg>